<svg width="180" height="180" viewBox="0 0 180 180" fill="none" xmlns="http://www.w3.org/2000/svg">
  <defs>
    <linearGradient id="bg" x1="0%" y1="0%" x2="100%" y2="100%">
      <stop offset="0%" stop-color="#0B0E11"/>
      <stop offset="100%" stop-color="#141820"/>
    </linearGradient>
    <linearGradient id="lg" x1="0%" y1="0%" x2="100%" y2="100%">
      <stop offset="0%" stop-color="#00D4FF"/>
      <stop offset="50%" stop-color="#0099FF"/>
      <stop offset="100%" stop-color="#0066FF"/>
    </linearGradient>
  </defs>
  <rect width="180" height="180" rx="36" fill="url(#bg)"/>
  <path d="M 40 140 L 40 40 L 95 40 C 115 40 128 53 128 73 C 128 83 123 92 115 98 C 125 104 132 116 132 130 C 132 148 120 140 108 140 L 40 140 Z M 60 85 L 85 85 C 93 85 99 79 99 72 C 99 65 93 59 85 59 L 60 59 L 60 85 Z M 60 122 L 90 122 C 98 122 104 116 104 108 C 104 100 98 94 90 94 L 60 94 L 60 122 Z"
        fill="url(#lg)" />
  <path d="M 136 55 L 152 90 L 136 125"
        stroke="url(#lg)"
        stroke-width="5"
        stroke-linecap="round"
        stroke-linejoin="round"
        fill="none" />
  <circle cx="151" cy="90" r="4" fill="#00D4FF" />
</svg>
